<?xml version="1.0" encoding="utf-8"?>
<!-- Generator: Adobe Illustrator 17.0.0, SVG Export Plug-In . SVG Version: 6.00 Build 0)  -->
<!DOCTYPE svg PUBLIC "-//W3C//DTD SVG 1.1//EN" "http://www.w3.org/Graphics/SVG/1.1/DTD/svg11.dtd">
<svg version="1.1" id="Layer_1" xmlns="http://www.w3.org/2000/svg" xmlns:xlink="http://www.w3.org/1999/xlink" x="0px" y="0px"
	 width="387px" height="131.5px" viewBox="0 0 387 131.5" enable-background="new 0 0 387 131.5" xml:space="preserve">
<g>
	<path fill="#D45A2A" d="M96.641,13.164c0.004,1.502,0.009,3.005,0.013,4.507c-8.576,0.17-9.024,0.587-8.651,12.868
		c0.413,13.051,0.826,26.085,1.24,39.103c0.376,12.938,0.602,13.292,8.727,14.147c0.004,1.501,0.008,3.001,0.013,4.502
		c-11.77-0.01-23.539-0.021-35.308-0.034c-0.004-1.564-0.008-3.129-0.012-4.693c8.458-0.781,8.795-1.128,8.646-14.337
		c-0.151-13.965-0.302-27.937-0.454-41.914c-0.15-0.012-0.301-0.024-0.451-0.035c-7.198,19.324-14.396,39.146-21.607,59.613
		c-2.03-0.006-4.061-0.013-6.091-0.02c-6.92-19.255-13.828-39.106-20.709-59.678c-0.075-0.008-0.15-0.015-0.225-0.023
		c-0.252,9.442-0.504,18.896-0.756,28.362c-0.326,11.002-0.207,17.167,0.248,21.145c0.456,4.75,2.938,5.933,10.269,6.629
		c0.003,1.637,0.005,3.275,0.008,4.912c-9.287-0.013-18.574-0.027-27.862-0.042c0-1.716,0-3.432,0-5.148
		c5.413-0.471,7.554-1.752,8.228-6.549c0.561-4.022,1.234-10.891,1.789-22.661c0.407-8.709,0.813-17.4,1.219-26.073
		c0.775-16.22-0.128-17.708-8.992-19.899c0-1.709-0.001-3.418-0.001-5.127c8.785,1.344,17.581,2.591,26.386,3.743
		C38.893,23.923,45.496,40.814,52.11,57.23c5.71-15.857,11.415-31.333,17.121-46.503C78.359,11.641,87.497,12.454,96.641,13.164z"/>
	<path fill="#D45A2A" d="M139.368,83.962c1.128-0.146,2.256-0.291,3.384-0.436c4.174-0.546,4.398-1.653,2.923-5.666
		c-1.361-3.791-2.722-7.591-4.084-11.4c-6.171-0.078-12.342-0.171-18.512-0.278c-1.12,3.593-2.239,7.195-3.359,10.806
		c-1.454,4.855-1.451,5.996,3.739,6.581c1.091,0.117,2.182,0.234,3.273,0.351c0.003,1.464,0.007,2.927,0.01,4.391
		c-8.761-0.005-17.523-0.011-26.284-0.018c-0.004-1.497-0.008-2.994-0.013-4.491c5.752-0.769,7.442-1.242,11.14-10.772
		c7.47-19.534,14.95-38.694,22.445-57.645c2.599-0.4,5.199-0.806,7.798-1.218c2.577,7.132,5.152,14.225,7.725,21.287
		c4.882,13.341,9.757,26.453,14.059,37.739c3.623,9.624,5.653,10.17,11.182,10.839c0.001,1.432,0.002,2.863,0.003,4.295
		c-11.807-0.002-23.615-0.005-35.422-0.011C139.374,86.865,139.371,85.413,139.368,83.962z M124.981,59.449
		c4.817,0.105,9.634,0.199,14.451,0.282c-2.385-7.15-4.772-14.332-7.16-21.553c-0.113-0.004-0.226-0.008-0.339-0.011
		C129.615,45.23,127.297,52.323,124.981,59.449z"/>
	<path fill="#D45A2A" d="M244.848,89.098c-3.234,0-6.468,0-9.701,0c-13.883-17.481-27.793-34.609-41.735-51.896
		c-0.075,0-0.151,0-0.226,0c0,6.743-0.001,13.487-0.001,20.231c0,11.545,0.451,17.592,0.902,21c0.564,3.848,3.61,5.278,11.057,5.603
		c-0.001,1.431-0.002,2.861-0.002,4.292c-9.363,0.001-18.726,0.001-28.09,0c-0.001-1.431-0.002-2.862-0.003-4.293
		c4.964-0.217,7.897-1.755,8.46-5.604c0.451-3.409,0.901-9.457,0.898-21.003c-0.002-6.745-0.003-13.489-0.005-20.234
		c-0.002-8.138-0.228-9.567-2.491-12.658c-1.698-2.32-4.526-3.109-8.599-3.491c-0.001-1.432-0.002-2.863-0.003-4.295
		c8.335,0.113,16.67,0.141,25.005,0.085c12.554,15.13,25.082,30.122,37.587,45.34c0.076-0.001,0.151-0.002,0.226-0.003
		c0.009-4.97,0.018-9.94,0.027-14.91c0.021-11.684-0.42-17.79-0.867-21.223c-0.558-3.88-3.608-5.204-11.071-5.335
		c0.002-1.439,0.004-2.877,0.006-4.316c9.614-0.267,19.226-0.647,28.834-1.14c-0.003,1.461-0.007,2.922-0.01,4.384
		c-5.651,0.497-8.594,2.176-9.167,6.108c-0.459,3.482-0.923,9.64-0.947,21.366C244.904,61.103,244.876,75.101,244.848,89.098z"/>
	<path fill="#D45A2A" d="M287.536,71.293c-0.017,6.012,0.2,8.898,2.228,9.925c1.803,0.913,4.397,1.011,7.894,0.984
		c3.61-0.029,8.461-0.413,10.839-3.521c1.811-2.273,3.737-5.505,5.559-11.873c1.616,0.232,3.232,0.465,4.848,0.7
		c-0.689,4.59-3.091,17.069-4.117,20.756c-18.65,0.02-37.301,0.035-55.952,0.046c0.004-1.465,0.007-2.931,0.01-4.396
		c8.576-0.709,9.481-1.514,9.513-13.781c0.032-12.493,0.065-24.985,0.097-37.478c0.031-12.273-0.87-12.999-8.438-13.273
		c0.004-1.466,0.007-2.933,0.011-4.399c12.243-0.678,24.479-1.538,36.702-2.582c-0.004,1.518-0.009,3.035-0.013,4.553
		c-8.127,1.344-9.033,2.193-9.068,14.684C287.611,44.855,287.574,58.074,287.536,71.293z"/>
	<path fill="#D45A2A" d="M354.185,68.006c-0.021,13.635,0.879,14.504,10.126,15.185c-0.002,1.669-0.003,3.339-0.005,5.008
		c-13.009,0.02-26.019,0.037-39.029,0.052c0.004-1.573,0.008-3.146,0.012-4.719c8.799-0.792,9.704-1.668,9.734-14.919
		c0.008-3.516,0.016-7.033,0.024-10.549c0.008-3.924-0.102-4.659-1.335-7.652c-2.242-5.367-6.28-12.871-13.905-26.518
		c-4.036-7.325-5.5-7.749-10.572-8.009c0.004-1.54,0.009-3.08,0.013-4.62c11.613-1.111,23.215-2.388,34.8-3.83
		c-0.003,1.616-0.006,3.232-0.01,4.847c-1.538,0.429-3.076,0.853-4.615,1.272c-2.815,0.809-2.367,2.104-1.248,4.574
		c4.481,9.52,7.619,16.458,11.882,25.047c2.148-4.899,7.006-17.431,10.5-26.937c1.239-3.469,1.467-5.294-2.578-5.156
		c-1.573,0.031-3.147,0.06-4.721,0.087c0.003-1.639,0.005-3.278,0.008-4.918c9.029-1.193,18.049-2.487,27.056-3.882
		c0,1.716,0,3.432,0,5.148c-6.282,1.692-8.191,3.545-12.016,11.645c-4.164,8.761-7.883,16.28-11.836,25.568
		c-1.92,4.569-2.259,5.336-2.267,10.643C354.198,59.587,354.191,63.797,354.185,68.006z"/>
</g>
<g>
	<path fill="#D45A2A" d="M77.217,113.825c2.624,0.032,4.16,0.032,7.967,0.032c-1.088-3.68-2.496-8.288-4.063-13.375
		C80.48,102.658,78.912,107.906,77.217,113.825z"/>
	<path fill="#D45A2A" d="M126.688,105.666c0-2.784-2.016-4.352-6.368-4.352c-1.088,0-2.368,0.128-3.744,0.352
		c0.032,5.76,0.096,8.16,0.096,8.16c1.152,0.16,2.208,0.224,3.167,0.224C124.385,110.049,126.688,108.674,126.688,105.666z"/>
	<path fill="#D45A2A" d="M10.452,94.132v35h363v-35H10.452z M46.304,122.017c0,0-0.096-9.183-0.48-21.118
		c-1.056,2.751-4.8,12.479-7.231,19.167c0,0-1.792,0-3.232-0.032c0,0-3.136-8.639-6.815-18.079
		c-0.032,2.336-0.128,10.367-0.16,18.783c0,0-1.408-0.064-2.848-0.096c0,0,0.256-7.487,0.672-20.895c0,0,1.984-0.032,4.128-0.16
		c0,0,3.648,9.855,6.655,17.759c1.152-2.976,4.352-11.359,7.104-18.943c0,0,2.048,0.032,4.192,0.16c0,0,0.416,11.103,0.992,23.422
		C49.279,121.985,47.84,121.985,46.304,122.017z M87.616,122.081c0,0-0.672-2.24-1.76-5.919c-1.216-0.032-4.512-0.096-9.28-0.096
		c-0.448,1.536-0.864,3.104-1.28,4.64c0,0-1.44-0.064-2.944-0.064c0,0,2.72-8.383,6.784-21.758c2.432-0.064,4.224-0.064,4.224-0.064
		s3.552,11.519,7.264,23.198C90.624,122.017,89.088,122.017,87.616,122.081z M127.36,122.177c0,0-2.24-4.16-5.536-9.951
		c-0.864,0.096-1.792,0.128-2.784,0.128c-0.736,0-1.536-0.032-2.336-0.096c0,1.792,0.032,4.959,0.128,8.511
		c0,0-1.568-0.032-2.879,0.032c0,0,0.032-7.808-0.16-21.278c2.304-0.448,4.352-0.64,6.175-0.64c6.24,0,9.631,2.4,9.631,6.624
		c0,3.136-1.728,5.248-5.12,6.24l5.792,10.015C130.272,121.761,129.088,121.889,127.36,122.177z M167.104,122.081
		c-3.647-5.184-6.208-8.703-7.392-10.335c-1.504,1.855-2.624,3.295-3.264,4.127c0.032,3.232,0.096,4.96,0.096,4.96
		c-1.632-0.032-2.912,0.032-2.912,0.032c0.032-13.023-0.032-21.119-0.032-21.119c1.632,0.064,2.848,0.032,2.848,0.032
		c-0.032,5.087-0.032,9.247,0,12.543c6.592-8.639,10.239-13.663,10.239-13.663c2.048,0.128,3.2,0.192,3.2,0.192
		c-4.671,6.015-7.295,9.631-8.191,10.879c4.96,7.104,8.64,12.127,8.64,12.127C168.16,121.953,167.104,122.081,167.104,122.081z
		 M207.296,121.441c0,0-7.392-0.192-13.695-0.224c0,0-0.032-9.151-0.256-22.079c0,0,6.047-0.064,13.631-0.224
		c0,0,0,0.832,0.032,2.399c0,0-5.024,0.032-10.783,0.16c0,0,0,3.104,0.064,8.319c0.608,0,4.864,0.032,9.471-0.032
		c0,0,0,0.992,0.032,2.528c0,0-4.96-0.096-9.472-0.032c0.032,1.984,0.064,4.224,0.128,6.656l10.88,0.128
		C207.328,119.041,207.328,119.937,207.296,121.441z M245.439,101.132h-6.495c0,3,0.032,9.738,0.16,20.33
		c0,0-1.344,0.102-2.944,0.134c0,0,0-8.013-0.096-20.076c-2.111,0-4.384,0.057-6.495,0.089c0,0,0-1.139-0.032-2.579
		c0,0,7.839-0.197,15.902-0.325C245.439,98.705,245.408,100.132,245.439,101.132z M269.056,121.377c0,0,0-9.76-0.128-22.239
		c0,0,1.023-0.032,2.88-0.032c0,0,0.032,10.655,0.16,22.271C271.969,121.377,270.656,121.345,269.056,121.377z M309.855,122.049
		c0,0-4.447-8.191-10.176-18.303c0,2.56,0.032,9.823,0.225,17.022c0,0-1.216-0.032-2.752-0.064c0,0,0.064-7.807-0.096-20.862
		c0,0,1.376-0.096,3.136-0.192c0,0,4.8,8.799,10.271,18.462c-0.031-2.72-0.096-11.263-0.352-19.678c0,0,1.152,0.032,2.752,0.032
		c0,0,0.032,9.12,0.256,23.358L309.855,122.049z M346.72,122.113c-5.951,0-9.407-4.032-9.407-11.903
		c0-6.399,3.136-11.775,9.472-11.775c4.319,0,7.104,2.592,7.807,7.039c0,0-0.96,0.16-2.72,0.576
		c-0.576-3.328-2.432-5.216-5.184-5.216c-4.256,0-6.399,3.872-6.399,9.184c0,5.855,1.824,9.631,6.688,9.631
		c3.296,0,5.76-2.464,5.567-7.359c-0.607,0-3.039,0-7.104,0.064c0,0,0-0.928-0.031-2.528c0,0,2.367,0.064,9.599,0
		c0.16,0.992,0.225,1.92,0.225,2.784C355.231,118.561,351.871,122.113,346.72,122.113z"/>
</g>
</svg>
