<?xml version="1.0" encoding="utf-8"?>
<!-- Generator: Adobe Illustrator 17.1.0, SVG Export Plug-In . SVG Version: 6.00 Build 0)  -->
<!DOCTYPE svg PUBLIC "-//W3C//DTD SVG 1.1//EN" "http://www.w3.org/Graphics/SVG/1.1/DTD/svg11.dtd">
<svg version="1.1" id="Layer_1" xmlns="http://www.w3.org/2000/svg" xmlns:xlink="http://www.w3.org/1999/xlink" x="0px" y="0px"
	 viewBox="0 0 264.8 95.6" enable-background="new 0 0 264.8 95.6" xml:space="preserve">
<g>
	<path fill="#A7A9AC" d="M60,71.7c5-0.4,10.7-1.5,16.9-3.3c6.2-1.8,12.5-3.9,18.8-6.4c6.3-2.5,12.4-5.2,18.2-8.2
		c5.8-3,10.9-5.9,15.1-8.8c0.5-0.4,1-0.2,1.4,0.4c0.4,0.6,0.5,1.5,0.4,2.7c-0.1,1.2-0.7,2.5-1.7,4.1c-1,1.6-2.6,3.1-4.9,4.7
		c-3.5,2.4-7.8,4.5-12.8,6.4c-5.1,1.8-10.5,3.5-16.4,4.8c-5.9,1.4-12,2.6-18.3,3.6c-6.3,1-12.4,1.9-18.2,2.6
		c-2.1,2.9-4.5,5.6-7.2,7.9c-2.6,2.3-5.5,4.1-8.5,5.5c-3,1.4-6.2,2.3-9.6,2.8c-3.4,0.5-6.9,0.4-10.6-0.3c-3.4-0.6-6.2-1.6-8.4-3.2
		c-2.2-1.5-3.8-3.4-5-5.6c-1.1-2.2-1.7-4.7-1.7-7.5c0-2.8,0.5-5.8,1.6-9c1.1-3.4,2.6-6.8,4.5-10.2c1.9-3.4,4-6.7,6.5-9.8
		c2.4-3.1,5.1-6.1,8-8.7c2.9-2.7,6-5,9.3-6.9c3.3-1.9,6.7-3.4,10.2-4.4c3.5-1,7.1-1.4,10.8-1.3c2.2-0.5,4.5-0.5,6.9,0
		c2.4,0.5,4.4,1.5,6,3.2c1.7,1.8,2.7,4,3.1,6.5c0.4,2.5,0.4,5.2-0.1,8c-0.5,2.8-1.3,5.7-2.4,8.7c-1.2,2.9-2.4,5.8-3.8,8.5
		c-1.4,2.7-2.8,5.3-4.3,7.6C62.3,68.2,61.1,70.1,60,71.7z M18.7,64c-2.5,4.9-3.8,9-3.8,12.2c0,3.2,0.8,5.7,2.3,7.4
		c1.6,1.7,3.7,2.7,6.5,3.1c2.8,0.3,5.7,0.1,8.8-0.8c3.1-0.9,6.2-2.3,9.2-4.2c3.1-1.9,5.7-4.3,7.8-7.2c-2.6,0.2-5,0.5-7.3,0.9
		c-2.3,0.4-4.6,0.9-6.7,1.6c-2.2,0.7-4.3,1.5-6.4,2.4c-2.1,1-4.3,2.2-6.4,3.6c-0.6,0.6-1.2,0.8-1.7,0.8c-0.5,0-1-0.2-1.4-0.4
		c-0.4-0.2-0.7-0.5-0.9-0.9c-0.2-0.4-0.3-0.6-0.1-0.8c3.3-2.7,7-4.8,11.2-6.1c3.7-1.2,7.2-2,10.5-2.4c3.3-0.4,6.9-0.7,10.7-0.9
		c0.7-1,1.9-2.8,3.5-5.3c1.7-2.6,3.4-5.5,5.2-8.8c1.8-3.3,3.6-6.8,5.2-10.4c1.7-3.6,2.9-7,3.6-10.2c0.7-3.1,0.8-5.8,0.3-8
		c-0.5-2.2-2.1-3.6-4.7-4c-1.8-0.2-3.5,0-5.4,0.7c-1.8,0.7-3.5,1.7-5.2,2.9c-1.6,1.3-3.2,2.7-4.6,4.3c-1.4,1.6-2.5,3.1-3.4,4.6
		c-0.3,0.6-1,1.2-1.8,1.8c-0.9,0.6-1.7,1.1-2.5,1.4c-0.8,0.3-1.4,0.4-1.8,0.2c-0.4-0.2-0.3-0.7,0.2-1.7c1-1.8,2.1-3.5,3.4-5.1
		c1.3-1.6,2.7-3.1,4.2-4.5c-6.5,4.1-12,9.1-16.5,14.9C26.2,50.6,22.2,57,18.7,64z"/>
	<path fill="#A7A9AC" d="M84.5,43.8c0.4-0.5,1-0.7,1.8-0.8c0.8-0.1,1.7,0,2.6,0.3c0.9,0.2,1.7,0.5,2.4,0.9c0.8,0.4,1.2,0.8,1.4,1.3
		c0.2,0.3,0.2,0.9,0,1.7c-0.2,0.8-0.5,1.7-0.9,2.7c-0.4,1-0.8,2-1.3,3.1c-0.5,1.1-0.9,2-1.2,2.8c-0.3,0.8-0.5,1.3-0.5,1.7
		c0,0.4,0.2,0.4,0.7,0c0.4-0.3,0.9-0.9,1.6-1.8c0.7-0.9,1.4-1.9,2.1-3c0.8-1.1,1.5-2.4,2.3-3.6c0.8-1.3,1.5-2.5,2.2-3.6
		c0.7-1.1,1.3-2.1,1.8-2.9c0.5-0.8,0.9-1.3,1.1-1.5c0.3-0.2,0.8-0.2,1.3-0.3c0.6,0,1.2,0.1,1.8,0.2c0.7,0.2,1.3,0.5,1.9,0.8
		c0.6,0.4,1,0.8,1.4,1.3c0.3,0.5,0.3,1.3-0.1,2.5c-0.4,1.2-0.9,2.4-1.5,3.6c-0.6,1.2-1,2.3-1.4,3.3c-0.4,1-0.4,1.5,0,1.7
		c0.3,0.1,1-0.3,1.9-1.3c1-1,2.1-2.3,3.2-3.7c1.2-1.4,2.3-2.9,3.4-4.3c1.1-1.4,1.8-2.5,2.3-3.2c0.9-1.4,1.7-1.9,2.3-1.4
		c0.6,0.4,0.8,1.3,0.4,2.5c-0.3,0.6-0.8,1.6-1.6,3.2c-0.8,1.6-1.8,3.2-2.8,4.9c-1,1.7-2.1,3.3-3.2,4.8c-1.1,1.5-2,2.4-2.8,2.7
		c-0.8,0.4-1.7,0.7-2.8,0.7c-1,0-2.1-0.1-3.1-0.4c-1-0.3-1.9-0.7-2.8-1.3c-0.8-0.6-1.4-1.2-1.8-2c-0.3-0.5-0.4-1-0.4-1.5
		c0-0.5,0.1-0.8,0.1-1.1c-0.7,1-1.4,2.1-2.2,3.2c-0.8,1.2-1.6,2.3-2.3,3.4c-0.8,1.1-1.5,2-2.2,2.8c-0.7,0.8-1.4,1.2-2,1.4
		c-0.4,0.1-1,0.2-1.8,0.1c-0.8,0-1.6-0.1-2.4-0.4c-0.8-0.2-1.6-0.5-2.3-0.8c-0.7-0.3-1.2-0.8-1.5-1.4c-0.2-0.6-0.2-1.6,0-3.1
		c0.3-1.5,0.6-3.2,1.1-4.9c0.5-1.8,1-3.5,1.7-5.3C83.3,46.2,83.9,44.8,84.5,43.8z"/>
	<path fill="#A7A9AC" d="M139.5,37.4c1.1-1.2,1.7-1.7,1.9-1.4c0.2,0.3,0.1,1-0.3,2.1c-0.4,1.1-1,2.5-1.8,4.1
		c-0.8,1.6-1.8,3.2-2.9,4.7c-1.1,1.5-2.3,2.9-3.6,4.2c-1.3,1.3-2.5,2.2-3.8,2.6c-0.9,0.3-2.1,0.4-3.6,0.1c-1.5-0.3-3.1-0.8-4.7-1.6
		c-1.6-0.8-2.9-1.8-4.1-3c-1.2-1.2-1.8-2.6-1.9-4.2c-0.1-1.3,0.2-2.5,0.8-3.8c0.6-1.3,1.3-2.5,2.1-3.5c0.8-1.1,1.7-2,2.7-2.7
		c0.9-0.7,1.8-1.2,2.5-1.3c0.6-0.1,1.3-0.1,2.2,0.1c0.9,0.2,1.7,0.5,2.4,0.9c0.8,0.4,1.4,0.9,1.9,1.5c0.5,0.6,0.8,1.3,0.9,2.1
		c0,0.8-0.3,1.8-1,2.9c-0.7,1.2-1.4,2.4-2.3,3.5c-1,1.3-2.2,2.8-3.5,4.3c1.6,0.1,3.9-0.9,6.9-3C133.4,43.8,136.4,41,139.5,37.4z
		 M127.1,38.1c-0.3-0.1-0.9,0.1-1.8,0.9c-0.9,0.7-1.7,1.6-2.5,2.6c-0.8,1-1.4,2.1-1.8,3.2c-0.4,1.1-0.4,2,0.1,2.6
		c0.4-0.3,0.9-0.9,1.7-1.9c0.8-0.9,1.5-2,2.2-3c0.7-1.1,1.3-2,1.8-2.9C127.2,38.7,127.3,38.2,127.1,38.1z"/>
	<path fill="#A7A9AC" d="M144.9,36.2c1.4-0.5,2.7-0.7,4-0.8c1.3,0,2.5,0,3.5,0.3c1.1,0.2,1.9,0.6,2.6,1.2c0.7,0.6,1.1,1.3,1.3,2.2
		c0.2,0.9,0,2-0.3,3.3c-0.4,1.3-0.9,2.7-1.6,4c-0.7,1.3-1.6,2.6-2.6,3.7c-1,1.2-2.1,2-3.1,2.4c-1.1,0.5-2.2,0.6-3.4,0.5
		c-1.2-0.1-2.2-0.5-3.2-1c-1-0.5-1.8-1.2-2.5-1.9c-0.7-0.8-1.1-1.5-1.2-2.2c-0.1-0.5,0-1.1,0.3-1.7c0.3-0.7,0.7-1.4,1.2-2.1
		c0.5-0.7,1.1-1.4,1.8-2c0.7-0.6,1.3-1.2,2-1.7c1.1-0.7,1.7-0.9,2-0.4s0.2,1.2-0.4,2c-0.2,0.2-0.4,0.7-0.8,1.2
		c-0.4,0.6-0.7,1.2-1.1,1.8c-0.4,0.6-0.6,1.2-0.9,1.7c-0.2,0.5-0.2,0.9,0,1.1c0.4,0.2,1,0,1.7-0.8c0.8-0.7,1.5-1.6,2.2-2.7
		c0.7-1.1,1.3-2.1,1.8-3.2c0.5-1,0.7-1.8,0.5-2.3c-0.2-0.5-0.7-0.6-1.6-0.4c-0.8,0.2-1.7,0.4-2.7,0.6c-1,0.2-2.1,0.3-3.2,0.3
		c-1.1,0-2-0.3-2.7-1.1c-0.8-0.8-1.2-1.7-1.3-2.9c-0.1-1.1,0-2.3,0.4-3.4c0.4-1.1,0.9-2.1,1.6-3c0.7-0.9,1.5-1.4,2.3-1.7
		c0.5-0.2,1.1-0.2,1.8,0c0.7,0.2,1.3,0.4,1.9,0.8c0.6,0.4,1.1,0.8,1.5,1.3c0.4,0.5,0.7,1,0.8,1.4c0.2,1-0.1,1.8-0.9,2.6
		C146,34.3,145.3,35.2,144.9,36.2z"/>
	<path fill="#A7A9AC" d="M160.7,21.8c0.3-0.4,2.4-0.9,6.4-1.6c1-1.1,1.9-2,2.8-2.8c0.9-0.8,1.8-1.2,2.7-1.3c0.8-0.1,1.8,0.1,2.8,0.6
		c1.1,0.5,1.9,1.2,2.6,1.9c3.5-0.5,7.2-1,11.2-1.7c4-0.6,8-1.3,12.1-2c5.2-0.9,10.3-1.8,15.3-2.8c5-1,9.5-1.9,13.5-2.7
		c4-0.8,7.3-1.5,10-2.1c2.6-0.6,4.3-0.9,4.9-1c1.2-0.2,2.5-0.2,3.9,0c1.5,0.2,2.8,0.4,4,0.8c1.2,0.4,2.2,0.8,3,1.3
		c0.7,0.5,0.9,1,0.6,1.5c-0.2,0.3-1.6,0.7-4,1c-2.4,0.4-5.6,0.8-9.5,1.3c-4,0.5-8.5,1.1-13.7,1.8c-5.2,0.7-10.7,1.4-16.5,2.1
		c-5.8,0.8-11.7,1.6-17.8,2.5c-6,0.9-11.9,1.9-17.5,2.9c-0.7,0.7-1.5,1.6-2.5,2.9c-1,1.3-2,2.6-3.1,4.1c-1.1,1.5-2.1,3-3.1,4.6
		c-1,1.6-1.8,3.1-2.5,4.4c-0.7,1.4-1.1,2.5-1.2,3.5s0,1.6,0.5,1.9c0.5,0.2,1.4-0.2,2.8-1.3c1.4-1.1,2.9-2.4,4.4-3.9s3.1-2.9,4.5-4.4
		c1.4-1.4,2.5-2.4,3-2.8c1.1-1,2-1.3,2.6-0.9c0.6,0.4,0.7,1.1,0.2,2c-0.3,0.5-1,1.5-2.1,3c-1.1,1.5-2.5,3.1-4,4.8
		c-1.6,1.7-3.2,3.2-4.9,4.5c-1.7,1.4-3.3,2.1-4.7,2.3c-2.8,0.4-4.8-0.1-5.8-1.5c-1.1-1.4-1.6-3.3-1.6-5.7c0-2.3,0.5-4.9,1.4-7.8
		c0.9-2.8,2.1-5.4,3.4-7.8C161.4,23.3,160,22.7,160.7,21.8z"/>
	<path fill="#A7A9AC" d="M197.2,29.1c1.2-1.4,2.2-1.9,3-1.5c0.7,0.4,0.6,1.4-0.5,3.1c-0.7,1.1-1.6,2.3-2.6,3.6
		c-1,1.3-2.1,2.5-3.2,3.6c-1.1,1.1-2.1,2.1-3.1,3c-1,0.8-1.7,1.4-2.2,1.6c-0.8,0.2-1.6,0.1-2.7-0.1c-1-0.2-2.1-0.6-3.1-1.2
		c-1-0.6-1.9-1.3-2.6-2.3c-0.7-0.9-1-2-1-3.3c0-1.2,0.2-2.5,0.6-4c0.4-1.5,0.8-2.8,1.4-4.1c0.6-1.2,1.1-2.3,1.8-3.1
		c0.6-0.8,1.2-1.2,1.7-1.2c0.5,0.1,1,0.2,1.6,0.4c0.6,0.2,1.1,0.4,1.6,0.7c0.5,0.3,0.9,0.6,1.2,1c0.3,0.4,0.5,0.9,0.5,1.4
		c0,0.6-0.2,1.4-0.7,2.5c-0.4,1.1-0.9,2.3-1.3,3.4c-0.4,1.2-0.8,2.2-1.1,3.2c-0.3,0.9-0.3,1.5,0,1.7c0.2,0.1,0.7,0,1.5-0.4
		c0.8-0.4,1.6-1,2.6-1.7c1-0.7,2.1-1.6,3.3-2.7C194.9,31.5,196.1,30.4,197.2,29.1z M192.2,19.4c-0.4,0-0.9,0-1.6-0.1
		c-0.6-0.1-1.2-0.4-1.8-0.6c-0.6-0.3-1-0.6-1.4-1.1c-0.4-0.4-0.5-0.9-0.5-1.4c0-0.4,0.2-1,0.4-1.7c0.2-0.7,0.5-1.4,0.9-2.1
		c0.3-0.7,0.7-1.3,1.2-1.9c0.5-0.5,0.9-0.9,1.4-1.1c0.5-0.1,1.1-0.1,1.8,0.1c0.7,0.2,1.4,0.4,2.1,0.8c0.7,0.4,1.2,0.8,1.7,1.3
		c0.4,0.5,0.6,0.9,0.6,1.2c0,0.4-0.1,1-0.4,1.7c-0.3,0.7-0.8,1.4-1.2,2.1c-0.5,0.7-1,1.3-1.6,1.8C193.1,19,192.6,19.3,192.2,19.4z"
		/>
	<path fill="#A7A9AC" d="M206.6,20.9c1-0.1,1.9,0.1,2.7,0.5c0.8,0.4,1.3,1,1.5,1.9c1.8,0.3,3.2,1.1,4,2.3c0.9,1.3,1.3,2.7,1.3,4.4
		c1.7,0.1,3.4-0.3,5-1.2c1.6-0.9,2.8-1.9,3.6-3.1c0.5-0.7,1-1.1,1.4-1.4c0.4-0.2,0.8-0.3,1.1-0.2c0.3,0.1,0.4,0.4,0.5,0.7
		c0,0.4-0.1,0.8-0.3,1.3c-1,1.9-2.4,3.8-4.4,5.4c-2,1.7-4.7,2.9-8.1,3.5c-0.8,1.5-1.8,2.8-3.1,4c-1.3,1.2-2.8,2.2-4.6,2.8
		c-0.8,0.3-1.8,0.4-3.1,0.2c-1.2-0.2-2.4-0.6-3.6-1.3c-1.2-0.7-2.2-1.6-3.1-2.7c-0.8-1.1-1.2-2.4-1.1-3.9c0-1.4,0.3-2.9,0.9-4.4
		c0.5-1.5,1.3-3,2.2-4.3c0.9-1.3,2-2.4,3.2-3.3C203.7,21.6,205.1,21.1,206.6,20.9z M203.8,38.4c0.4,0.5,1.1,0.5,2.2-0.2
		c1.1-0.6,2.1-1.6,3-2.8c-0.8-0.5-1.5-1.2-2.1-2.1c-0.6-0.9-1.1-2-1.4-3.2c-1.1,1.7-1.8,3.3-2.1,4.9
		C202.9,36.6,203.1,37.7,203.8,38.4z"/>
	<path fill="#A7A9AC" d="M226.6,22.3c0.4-0.4,0.9-0.6,1.5-0.5c0.6,0.1,1.2,0.3,1.7,0.7c0.5,0.4,1,0.8,1.4,1.4
		c0.4,0.6,0.7,1.1,0.8,1.6c0.2,0.5,0.2,1.1,0,1.8c-0.2,0.7-0.4,1.5-0.7,2.2c-0.3,0.7-0.6,1.4-0.8,2c-0.3,0.6-0.4,1-0.5,1.3
		c0.3-0.2,1.1-1,2.3-2.2c1.2-1.2,2.5-2.6,3.8-4c1.3-1.4,2.6-2.7,3.8-3.9c1.2-1.1,1.9-1.8,2.3-1.9c0.3-0.1,0.8-0.2,1.5-0.1
		c0.7,0.1,1.4,0.3,2.1,0.6c0.7,0.3,1.3,0.7,1.9,1.1c0.6,0.4,0.9,0.9,1.1,1.5c0.2,0.6-0.1,1.5-0.7,2.7c-0.6,1.3-1.3,2.6-2,4
		c-0.7,1.4-1.4,2.6-1.9,3.7c-0.6,1.1-0.7,1.7-0.3,1.9c0.4,0.2,1.1-0.1,2.3-0.9c1.2-0.8,2.4-1.8,3.8-2.9c1.4-1.2,2.7-2.3,3.9-3.5
		c1.2-1.2,2.1-2,2.6-2.5c0.5-0.5,1-0.8,1.4-0.8c0.4,0,0.7,0.1,0.9,0.3c0.2,0.3,0.3,0.6,0.3,1c0,0.4-0.2,0.9-0.4,1.4
		c-0.3,0.5-1,1.4-2.1,2.6c-1.1,1.2-2.3,2.6-3.6,4c-1.3,1.4-2.6,2.7-3.8,3.8c-1.2,1.1-2.2,1.8-2.8,2.1c-1,0.4-2.2,0.6-3.5,0.5
		c-1.3-0.1-2.5-0.4-3.7-0.8c-1.2-0.4-2.2-1-3-1.7c-0.8-0.7-1.3-1.4-1.4-2.2c-0.1-0.3,0-0.8,0.3-1.7s0.6-1.7,1-2.5
		c0.4-0.8,0.8-1.6,1.1-2.3c0.4-0.7,0.5-1.1,0.5-1.2c-1.9,2.2-3.5,4-4.8,5.2c-1.2,1.3-2.5,2.5-3.7,3.5c-1.3,1.1-2.2,1.6-2.7,1.6
		c-0.9,0-1.8-0.2-2.8-0.8c-1-0.6-1.6-1.4-1.8-2.6c-0.1-0.5,0-1.3,0.2-2.6c0.2-1.2,0.5-2.5,0.9-3.9c0.4-1.4,0.9-2.7,1.5-4
		C225.1,24.1,225.8,23.1,226.6,22.3z"/>
</g>
</svg>
